<svg xmlns="http://www.w3.org/2000/svg" width="20.969" height="40" viewBox="0 0 20.969 40">
  <defs>
    <style>
      .cls-1 {
        fill: #28a9e0;
        fill-rule: evenodd;
      }
    </style>
  </defs>
  <path id="arrow_left" data-name="arrow left" class="cls-1" d="M387.709,376.993l17.964,18.074a1.119,1.119,0,0,1,.046,1.551c-0.015.016-.03,0.032-0.046,0.047a1.134,1.134,0,0,1-1.584,0l-18.771-18.873a1.173,1.173,0,0,1,0-1.6l18.771-18.842a1.12,1.12,0,0,1,.777-0.338,1.137,1.137,0,0,1,.807.338,1.119,1.119,0,0,1,.046,1.551c-0.015.016-.03,0.032-0.046,0.047Z" transform="translate(-385.031 -357)"/>
</svg>
