<svg xmlns="http://www.w3.org/2000/svg" width="36.031" height="42" viewBox="0 0 36.031 42">
  <defs>
    <style>
      .cls-1 {
        fill: #ccc;
        fill-rule: evenodd;
      }
    </style>
  </defs>
  <path id="Kształt_2" data-name="Kształt 2" class="cls-1" d="M604.942,919a6.63,6.63,0,1,0,6.42,6.626A6.527,6.527,0,0,0,604.942,919Zm7.984-1.264a11.639,11.639,0,0,1-1.668,17.254A18.791,18.791,0,0,0,622.9,924.224c2.711-6.882.187-12.062-4.053-16.758a9.073,9.073,0,0,1,.2,1.886A8.7,8.7,0,0,1,612.926,917.739Zm-7.251-8.387a4.914,4.914,0,1,0,4.912-5.069A4.992,4.992,0,0,0,605.675,909.352Zm-9.192,23.626a11.583,11.583,0,0,1-2.6-7.349,11.289,11.289,0,0,1,9.738-11.326,8.885,8.885,0,0,1-1.494-4.951,8.6,8.6,0,0,1,8.459-8.728,8.188,8.188,0,0,1,1.136.081,65.3,65.3,0,0,1-7.707-7.7c1.113,11.967-10.561,7.619-14.876,18.645A17.707,17.707,0,0,0,596.483,932.978Z" transform="translate(-588 -893)"/>
</svg>
