<svg xmlns="http://www.w3.org/2000/svg" width="42" height="42" viewBox="0 0 42 42">
  <defs>
    <style>
      .cls-1 {
        fill: #b3b3b3;
        fill-rule: evenodd;
      }
    </style>
  </defs>
  <path id="Kształt_1" data-name="Kształt 1" class="cls-1" d="M587.979,388.005a18.022,18.022,0,0,0,10.156,16.217l-8.6-23.55A17.944,17.944,0,0,0,587.979,388.005Zm30.184-.91a9.484,9.484,0,0,0-1.486-4.969c-0.913-1.484-1.77-2.741-1.77-4.226a3.12,3.12,0,0,1,3.026-3.2c0.08,0,.156.01,0.233,0.015a18.016,18.016,0,0,0-27.224,3.39c0.424,0.013.822,0.022,1.16,0.022,1.885,0,4.8-.229,4.8-0.229a0.745,0.745,0,0,1,.115,1.485s-0.976.114-2.062,0.171l6.562,19.519,3.943-11.827-2.807-7.692c-0.97-.057-1.89-0.171-1.89-0.171a0.745,0.745,0,0,1,.114-1.485s2.975,0.229,4.746.229c1.885,0,4.8-.229,4.8-0.229a0.745,0.745,0,0,1,.116,1.485s-0.978.114-2.062,0.171l6.511,19.371,1.8-6.006A21.777,21.777,0,0,0,618.163,387.1Zm-11.848,2.486-5.407,15.711A18.043,18.043,0,0,0,611.982,405a1.609,1.609,0,0,1-.128-0.248ZM621.81,379.36a13.894,13.894,0,0,1,.121,1.852,16.991,16.991,0,0,1-1.37,6.455l-5.5,15.914A18.024,18.024,0,0,0,621.81,379.36ZM606,367a21.006,21.006,0,1,0,21.007,21A21.029,21.029,0,0,0,606,367Zm0,41.048a20.043,20.043,0,1,1,20.041-20.043A20.066,20.066,0,0,1,606,408.048Z" transform="translate(-585 -367)"/>
</svg>
